<svg xmlns="http://www.w3.org/2000/svg" viewBox="0 0 91.03 95.74">
  <path fill="#1a1a1a" d="M89.48 47.3a33.17 33.17 0 0 0-29.29-23c0-.4.05-.8.05-1.2a14.64 14.64 0 0 0-6.57-12.19 11.52 11.52 0 0 1 1.54-1.58 12.54 12.54 0 0 1 4.4-2.44A3.5 3.5 0 1 0 57.53.16 19.52 19.52 0 0 0 50.66 4a19.25 19.25 0 0 0-3.86 4.49c-.43 0-.86-.05-1.29-.05s-.85 0-1.28.05A19.25 19.25 0 0 0 40.37 4 19.52 19.52 0 0 0 33.5.16a3.5 3.5 0 0 0-2.08 6.68 12.54 12.54 0 0 1 4.4 2.44 11.52 11.52 0 0 1 1.54 1.58 14.67 14.67 0 0 0-6.58 12.19v1.2A33.12 33.12 0 0 0 .32 61.9l.22 1.58 1.33.87a22.58 22.58 0 0 0 24 .45 30.14 30.14 0 0 0 11.87 19.84 29.58 29.58 0 0 0 3.09 1.9l1.4 2.74 3.28 6.46 3.29-6.46 1.4-2.74a30.68 30.68 0 0 0 3.09-1.9A30.14 30.14 0 0 0 65.2 64.8a22.58 22.58 0 0 0 24-.45l1.33-.87.22-1.58a33.1 33.1 0 0 0-1.27-14.6zM38.92 19.06a7.58 7.58 0 0 1 3-2.79 7.39 7.39 0 0 1 3-.81h1.05a7.43 7.43 0 0 1 3 .81 7.61 7.61 0 0 1 0 13.57 7.43 7.43 0 0 1-3 .81h-1.05a7.39 7.39 0 0 1-3-.81 7.64 7.64 0 0 1-3-10.78zm7.23 43.61a33.7 33.7 0 0 0-13.07 2.65 23.14 23.14 0 0 1-.5-6.24 21.69 21.69 0 0 1 25.8.19l.07-.1a23.4 23.4 0 0 1-.4 5.69 33.69 33.69 0 0 0-11.9-2.19zm-.82-14.76a28.57 28.57 0 0 0-10.48 2 20.16 20.16 0 0 1 2.39-3.83 20.65 20.65 0 0 1 8.27-6.16 20 20 0 0 1 10.75 10.17 28.54 28.54 0 0 0-10.93-2.18zm-19.5 7.91a15.56 15.56 0 0 1-18.76 3.47 26.12 26.12 0 0 1 26.19-28.11 14.67 14.67 0 0 0 5.05 4.65 27.92 27.92 0 0 0-6.52 5.88 27.62 27.62 0 0 0-5.96 14.11zM49.13 79a32.37 32.37 0 0 1-3 1.75l-.64.34-.63-.34a32.37 32.37 0 0 1-3-1.75 23.06 23.06 0 0 1-6.32-7.17 26.36 26.36 0 0 1 20.07-.38A23.15 23.15 0 0 1 49.13 79zM84 59.29a15.56 15.56 0 0 1-18.8-3.47 27.82 27.82 0 0 0-12.48-20 14.67 14.67 0 0 0 5.05-4.65A26.17 26.17 0 0 1 84 59.29z"/>
</svg>
